<svg id="Capa_1" enable-background="new 0 0 512 512" height="512" viewBox="0 0 512 512" width="512" xmlns="http://www.w3.org/2000/svg"><g><g><path d="m10 156h372v320h-372z" fill="#eefaff"/><path d="m308.2 256.01-.01-.01h-258.19v180h292v-70.64z" fill="#ffda8f"/><path d="m382 36v120h-372v-120z" fill="#c1b0b5"/><path d="m380.79 211.65c0 17.46 6.758 35.052 20 48.28l8.28 8.29c23.43 23.43 23.43 61.42 0 84.85-23.349 23.349-61.294 23.511-84.85 0l-8.29-8.28c-12.8-12.81-30.17-20-48.28-20 .055-.101 14.309-42.589 42.43-70.71 28.288-28.287 70.61-42.376 70.71-42.43z" fill="#ffda8f"/><g fill="#eefaff"><path d="m50 196v60h258.19l.01.01 33.8-26.11v-33.9z"/><circle cx="296" cy="96" r="20"/><circle cx="196" cy="96" r="20"/></g><path d="m121 341h30v30h-30z" fill="#ffda8f" transform="matrix(.707 -.707 .707 .707 -211.897 200.437)"/><circle cx="96" cy="96" fill="#eefaff" r="20"/></g><g><path d="m96 66c-16.542 0-30 13.458-30 30s13.458 30 30 30 30-13.458 30-30-13.458-30-30-30zm0 40c-5.514 0-10-4.486-10-10s4.486-10 10-10 10 4.486 10 10-4.486 10-10 10z"/><path d="m196 66c-16.542 0-30 13.458-30 30s13.458 30 30 30 30-13.458 30-30-13.458-30-30-30zm0 40c-5.514 0-10-4.486-10-10s4.486-10 10-10 10 4.486 10 10-4.486 10-10 10z"/><path d="m296 66c-16.542 0-30 13.458-30 30s13.458 30 30 30 30-13.458 30-30-13.458-30-30-30zm0 40c-5.514 0-10-4.486-10-10s4.486-10 10-10 10 4.486 10 10-4.486 10-10 10z"/><path d="m176 346c-16.542 0-30-13.458-30-30 0-5.523-4.477-10-10-10s-10 4.477-10 10c0 16.542-13.458 30-30 30-5.523 0-10 4.477-10 10s4.477 10 10 10c16.542 0 30 13.458 30 30 0 5.523 4.477 10 10 10s10-4.477 10-10c0-16.542 13.458-30 30-30 5.523 0 10-4.477 10-10s-4.477-10-10-10zm-40 20.035c-2.854-3.8-6.235-7.181-10.035-10.035 3.8-2.854 7.181-6.235 10.035-10.035 2.854 3.8 6.235 7.181 10.035 10.035-3.8 2.854-7.181 6.235-10.035 10.035z"/><path d="m236 306h-10v-10c0-5.523-4.477-10-10-10s-10 4.477-10 10v10h-10c-5.523 0-10 4.477-10 10s4.477 10 10 10h10v10c0 5.523 4.477 10 10 10s10-4.477 10-10v-10h10c5.522 0 10-4.477 10-10s-4.478-10-10-10z"/><path d="m422.7 352.557c20.511-27.396 18.333-66.516-6.554-91.403l-8.288-8.298c-8.098-8.091-13.562-18.263-15.857-29.482v-187.374c0-5.523-4.478-10-10-10h-372.001c-5.523 0-10 4.477-10 10v440c0 5.523 4.477 10 10 10h141c5.523 0 10-4.477 10-10s-4.477-10-10-10h-131v-300h352v38.227c-4.611 1.787-11.702 4.736-20 8.868v-17.095c0-5.523-4.478-10-10-10h-292c-5.523 0-10 4.477-10 10v240c0 5.523 4.477 10 10 10h292c5.522 0 10-4.477 10-10v-56.907c6.519 1.388 13.166 1.852 20 1.333v85.574h-131c-5.523 0-10 4.477-10 10s4.477 10 10 10h141c5.522 0 10-4.477 10-10v-100.11c5.903-2.294 11.475-5.387 16.558-9.19l86.371 86.372c3.906 3.905 10.237 3.905 14.143 0 3.905-3.905 3.905-10.237 0-14.143zm-402.7-206.557v-100h352v100zm312 60v18.3c-.507.318-1.65 1.038-1.682 1.06-10.053 6.467-18.873 13.407-26.268 20.641h-244.05v-40h272zm-272 220v-160.01h227.027c-1.926 2.685-3.819 5.453-5.669 8.331-.021.031-.091.138-.105.16-15.179 23.669-22.773 46.199-23.09 47.147-1.016 3.049-.505 6.401 1.375 9.009 1.88 2.607 4.897 4.153 8.112 4.153 15.574 0 30.208 6.062 41.213 17.075l8.292 8.282c4.466 4.457 9.442 8.247 14.845 11.326v54.527zm271.286-80.006-8.282-8.272c-11.382-11.39-25.661-18.839-41.181-21.661 2.874-6.649 7.067-15.458 12.56-24.758 9.841 2.954 18.769 8.271 26.104 15.606l24.94 24.95c3.903 3.904 10.234 3.909 14.142.002 3.906-3.904 3.907-10.236.003-14.142l-24.941-24.951c-8.24-8.24-18.001-14.55-28.729-18.654 3.413-4.467 7.225-8.942 11.25-12.963 3.833-3.833 8.18-7.592 12.965-11.246 4.105 10.727 10.414 20.487 18.653 28.726l10.8 10.8c3.906 3.905 10.236 3.905 14.143 0 3.905-3.905 3.905-10.237 0-14.143l-10.8-10.8c-7.336-7.336-12.654-16.264-15.608-26.105 9.283-5.485 18.119-9.688 24.787-12.568.017.094.035.187.053.281.042.259.094.514.156.765 3.011 15.266 10.404 29.137 21.414 40.135l8.284 8.294c19.494 19.494 19.494 51.213 0 70.707-19.332 19.335-50.951 19.721-70.713-.003z"/><circle cx="196" cy="476" r="10"/></g></g></svg>