<svg id="Capa_1" enable-background="new 0 0 510 510" height="512" viewBox="0 0 510 510" width="512" xmlns="http://www.w3.org/2000/svg"><g><path d="m366.817 439.25-6.817 8.17v32.58c-14.981 0-30.019 0-45 0v30h60l10-26.5-10-33.5z" fill="#e2dff4"/><path d="m382.711 439.334 7.289 8.086v32.58h45v30c-7.259 0-52.693 0-60 0 0-20.765 0-39.167 0-60z" fill="#bebcdd"/><path d="m336.682 381.426c-10.884 17.63-8.309 40.557 6.514 55.379 8.148 8.148 19.398 13.195 31.804 13.195l10-31-10-29-17.5-10.75z" fill="#f9f9f9"/><path d="m25.123 225c-6.692 16.779-10.123 34.721-10.123 53.033v156.967l60 10 60-10 10-105-10-105-54.938-10z" fill="#ffe278"/><path d="m75 330c0 33.083 26.915 60 60 60l10-60-10-60c-33.083 0-60 26.915-60 60z" fill="#ffc178"/><path d="m105 330c0 16.541 13.456 30 30 30l10-30-10-30c-16.541 0-30 13.457-30 30z" fill="#f4764e"/><path d="m81.453 140.246c-5.608 13.539-13.885 25.973-24.56 36.648-13.83 13.83-24.602 30.13-31.771 48.106h109.877l10-75-10-75-22.5-10-22.499 10v10.983c-.458 6.34 2.431 27.757-8.547 54.263z" fill="#5c6c93"/><path d="m255 278.033c0-18.281-3.419-36.226-10.123-53.033l-54.938-10-54.939 10v210l60 10 60-10c0-8.725 0-148.242 0-156.967z" fill="#ffc178"/><path d="m337.5 150c-20.676 0-37.5-16.821-37.5-37.5 0-20.677 16.821-37.5 37.5-37.5 20.676 0 37.5 16.822 37.5 37.5 0 20.676-16.821 37.5-37.5 37.5z" fill="#f4764e"/><g><g><path d="m450 120c-12.406 0-23.656-5.047-31.805-13.195-17.591-17.591-17.602-46.008 0-63.609 8.149-8.149 19.399-13.196 31.805-13.196 24.811 0 45 20.187 45 45 0 24.812-20.186 45-45 45z" fill="#ff435b"/></g></g><path d="m375 390v60c12.406 0 23.656-5.047 31.805-13.195 14.808-14.808 17.407-37.737 6.512-55.382l-22.067-.923z" fill="#e2dff4"/><path d="m244.877 225c-7.159-17.952-17.922-34.258-31.771-48.106-21.347-21.348-33.106-49.733-33.106-79.927 0-7.683 0-14.284 0-21.967l-22.5-10-22.5 10v150h54.939z" fill="#435184"/><path d="m135 0c-14.981 0-30.019 0-45 0v75h45l10-37.5z" fill="#cc815c"/><path d="m180 0c-14.981 0-30.019 0-45 0v75h45c0-20.194 0-63.236 0-75z" fill="#a66342"/><path d="m135 270v120c16.542 0 31.542-6.728 42.406-17.594 23.452-23.45 23.47-61.345 0-84.813-10.864-10.865-25.864-17.593-42.406-17.593z" fill="#ff936b"/><path d="m135 300v60c16.541 0 30-13.457 30-30 0-16.541-13.457-30-30-30z" fill="#ff435b"/><path d="m15 435v75h120l10-37.5-10-37.5c-14.518 0-105.387 0-120 0z" fill="#5c6c93"/><path d="m135 435v75h120c0-20.194 0-63.236 0-75-14.518 0-105.387 0-120 0z" fill="#435184"/><path d="m375 270 10-45-10-45c-10.889 0-79.039 0-90 0v70l55.667 21.833z" fill="#f9f9f9"/><path d="m465 250c0-18.852 0-59.019 0-70-10.889 0-79.039 0-90 0v90l43.756.276z" fill="#e2dff4"/><path d="m300 250c-5.246 0-9.754 0-15 0v50c0 49.622 40.372 90 90 90l10-60-10-60c-37.5 0-37.5-20-75-20z" fill="#f4764e"/><path d="m450 250c-37.5 0-37.5 20-75 20v120c49.623 0 90-40.371 90-90 0-15.912 0-34.088 0-50-5.246 0-9.754 0-15 0z" fill="#ff435b"/></g></svg>